#!OML:ASF F:\VICON\USERDATA\INSTALL\rory3\rory3.ASF
:FULLY-SPECIFIED
:DEGREES
273
root 1.99001 18.9001 -4.34007 -3.95756 -9.15186 1.92599
lowerback 5.22132 1.17164 -3.12839
upperback 1.01584 1.35642 -1.36615
thorax -1.92077 0.689966 0.257394
lowerneck -10.8468 -2.22836 -6.33847
upperneck 27.2969 -3.57321 6.30651
head 10.7707 -1.57658 2.92027
rclavicle -1.38217e-014 -1.27222e-014
rhumerus -26.5925 35.6201 -93.6156
rradius 89.1066
rwrist -13.9103
rhand -36.7055 11.5193
rfingers 7.12502
rthumb -9.79048 -18.2332
lclavicle -1.38217e-014 -1.27222e-014
lhumerus -13.3404 -41.2933 79.7168
lradius 103.344
lwrist -15.7349
lhand 6.54004 16.1043
lfingers 7.12502
lthumb 31.8378 43.3426
rfemur 5.3274 19.5717 16.9501
rtibia 12.5011
rfoot -13.1589 -21.9141
rtoes -6.61666
lfemur 0 0 0
ltibia 0
lfoot 0 0
ltoes 0
274
root 1.98927 18.9005 -4.33954 -3.96482 -9.16159 1.91162
lowerback 5.21921 1.1656 -3.13698
upperback 1.02644 1.34838 -1.3617
thorax -1.90875 0.685786 0.267513
lowerneck -11.188 -2.12897 -6.38461
upperneck 27.7988 -3.50748 6.59181
head 11.0281 -1.51315 3.05204
rclavicle -2.86995e-015 3.18055e-015
rhumerus -26.5965 35.724 -93.6331
rradius 89.0481
rwrist -13.4631
rhand -36.7541 11.3002
rfingers 7.12502
rthumb -9.83746 -18.45
lclavicle -2.86995e-015 3.18055e-015
lhumerus -13.2934 -41.3752 79.6365
lradius 103.171
lwrist -16.6774
lhand 5.94788 15.8854
lfingers 7.12502
lthumb 31.2737 43.2343
rfemur 5.37123 19.5731 16.9756
rtibia 12.4264
rfoot -13.0987 -21.9283
rtoes -6.73688
lfemur 0 0 0
ltibia 0
lfoot 0 0
ltoes 0
275
root 1.98957 18.9013 -4.33807 -3.92791 -9.17459 1.87115
lowerback 5.18526 1.16798 -3.09364
upperback 1.01968 1.35516 -1.36722
thorax -1.89581 0.688855 0.23779
lowerneck -11.3612 -2.08347 -6.35323
upperneck 28.0558 -3.48577 6.70478
head 11.16 -1.48404 3.0972
rclavicle -3.79741e-014 -3.97569e-016
rhumerus -26.6168 35.7552 -93.6638
rradius 88.9767
rwrist -13.0503
rhand -36.6245 10.965
rfingers 7.12502
rthumb -9.71232 -18.7911
lclavicle -3.79741e-014 -3.97569e-016
lhumerus -13.2997 -41.4678 79.5909
lradius 102.975
lwrist -17.4924
lhand 5.07742 15.4032
lfingers 7.12502
lthumb 30.4438 42.9092
rfemur 5.35575 19.5677 17.0071
rtibia 12.387
rfoot -13.0705 -21.9326
rtoes -6.84162
lfemur 0 0 0
ltibia 0
lfoot 0 0
ltoes 0
276
root 1.98908 18.9023 -4.3377 -3.89625 -9.2124 1.84869
lowerback 5.12604 1.19878 -3.07511
upperback 1.04013 1.40025 -1.37257
thorax -1.84233 0.710499 0.220403
lowerneck -11.3815 -2.10714 -6.35026
upperneck 28.0654 -3.52354 6.71822
head 11.1711 -1.49886 3.09696
rclavicle -1.24365e-014 9.54166e-015
rhumerus -26.5871 35.7217 -93.6389
rradius 88.9065
rwrist -12.7423
rhand -36.516 11.1407
rfingers 7.12502
rthumb -9.6077 -18.6202
lclavicle -1.24365e-014 9.54166e-015
lhumerus -13.1576 -41.571 79.5421
lradius 102.749
lwrist -18.1813
lhand 4.50162 14.996
lfingers 7.12502
lthumb 29.8945 42.6024
rfemur 5.30445 19.6053 17.0221
rtibia 12.3951
rfoot -13.0036 -21.9445
rtoes -6.9797
lfemur 0 0 0
ltibia 0
lfoot 0 0
ltoes 0
277
root 1.98805 18.9025 -4.33776 -3.90151 -9.23156 1.93157
lowerback 5.07911 1.2248 -3.17096
upperback 1.07165 1.43225 -1.39424
thorax -1.78629 0.725973 0.251037
lowerneck -11.359 -2.1194 -6.42457
upperneck 28.0449 -3.54409 6.78923
head 11.1631 -1.50798 3.13321
rclavicle -1.73253e-014 -3.97569e-016
rhumerus -26.538 35.7332 -93.5899
rradius 88.8543
rwrist -12.5838
rhand -36.3978 11.6439
rfingers 7.12502
rthumb -9.49361 -18.1222
lclavicle -1.73253e-014 -3.97569e-016
lhumerus -12.9366 -41.631 79.4957
lradius 102.495
lwrist -18.7748
lhand 4.09819 14.7394
lfingers 7.12502
lthumb 29.5094 42.4144
rfemur 5.26407 19.6407 16.9281
rtibia 12.4396
rfoot -12.9914 -21.9336
rtoes -7.04053
lfemur 0 0 0
ltibia 0
lfoot 0 0
ltoes 0
278
root 1.9873 18.9022 -4.34003 -3.9292 -9.16424 2.02571
lowerback 5.11864 1.20577 -3.2878
upperback 1.06806 1.39846 -1.40558
thorax -1.81359 0.709955 0.306028
lowerneck -11.2821 -2.10489 -6.49366
upperneck 28.0276 -3.51905 6.81924
head 11.1407 -1.50176 3.15942
rclavicle -4.21175e-015 -5.56597e-015
rhumerus -26.5763 35.8148 -93.6027
rradius 88.8068
rwrist -12.4381
rhand -36.4292 11.9926
rfingers 7.12502
rthumb -9.52396 -17.7722
lclavicle -4.21175e-015 -5.56597e-015
lhumerus -12.8274 -41.6321 79.4617
lradius 102.293
lwrist -19.2064
lhand 3.7912 14.5777
lfingers 7.12502
lthumb 29.2163 42.304
rfemur 5.25495 19.6344 16.8375
rtibia 12.5083
rfoot -13.1218 -21.9794
rtoes -7.04943
lfemur 0 0 0
ltibia 0
lfoot 0 0
ltoes 0
279
root 1.98721 18.9018 -4.34261 -3.92611 -9.10205 2.08588
lowerback 5.14867 1.18079 -3.36315
upperback 1.05062 1.35894 -1.41695
thorax -1.84858 0.691153 0.338247
lowerneck -11.2247 -2.09077 -6.55337
upperneck 28.0234 -3.50241 6.86909
head 11.128 -1.49578 3.19054
rclavicle 7.33018e-015 1.35174e-014
rhumerus -26.6436 35.9134 -93.6606
rradius 88.7333
rwrist -12.2654
rhand -36.6109 12.1502
rfingers 7.12502
rthumb -9.69925 -17.6064
lclavicle 7.33018e-015 1.35174e-014
lhumerus -12.7606 -41.6195 79.3821
lradius 102.155
lwrist -19.4626
lhand 3.85495 14.3842
lfingers 7.12502
lthumb 29.2772 42.0999
rfemur 5.21678 19.6046 16.7685
rtibia 12.5789
rfoot -13.2953 -22.0226
rtoes -7.26003
lfemur 0 0 0
ltibia 0
lfoot 0 0
ltoes 0
280
root 1.98805 18.9017 -4.34101 -3.90908 -9.09093 2.1145
lowerback 5.11311 1.1839 -3.36931
upperback 1.05275 1.3639 -1.44541
thorax -1.82612 0.693312 0.312909
lowerneck -11.2369 -2.09471 -6.58338
upperneck 28.0616 -3.52155 6.93524
head 11.1483 -1.49976 3.21888
rclavicle -7.85821e-015 -2.78299e-015
rhumerus -26.7164 35.964 -93.7231
rradius 88.6744
rwrist -12.1483
rhand -36.6979 12.095
rfingers 7.12502
rthumb -9.7832 -17.6578
lclavicle -7.85821e-015 -2.78299e-015
lhumerus -12.6416 -41.7325 79.2737
lradius 102.068
lwrist -19.6233
lhand 4.03738 14.4062
lfingers 7.12502
lthumb 29.4514 42.0914
rfemur 5.17969 19.538 16.7174
rtibia 12.6173
rfoot -13.3051 -22.0016
rtoes -7.56387
lfemur 0 0 0
ltibia 0
lfoot 0 0
ltoes 0
281
root 1.98759 18.9023 -4.34061 -3.90255 -9.10364 2.04377
lowerback 5.10206 1.18667 -3.2968
upperback 1.0682 1.3728 -1.43165
thorax -1.80298 0.697031 0.286378
lowerneck -11.2348 -2.09416 -6.62231
upperneck 28.0702 -3.52408 6.97656
head 11.1527 -1.50024 3.24097
rclavicle 2.28416e-014 -5.96354e-015
rhumerus -26.7814 36.0365 -93.7633
rradius 88.645
rwrist -12.0793
rhand -36.685 11.8482
rfingers 7.12502
rthumb -9.7707 -17.9052
lclavicle 2.28416e-014 -5.96354e-015
lhumerus -12.4742 -41.8858 79.1704
lradius 101.971
lwrist -19.8118
lhand 3.90308 14.5923
lfingers 7.12502
lthumb 29.3232 42.3
rfemur 5.17913 19.5282 16.8019
rtibia 12.6145
rfoot -13.2182 -22.012
rtoes -7.74465
lfemur 0 0 0
ltibia 0
lfoot 0 0
ltoes 0
282
root 1.98567 18.9035 -4.346 -3.87793 -9.09343 1.94379
lowerback 5.15591 1.17084 -3.23729
upperback 1.05471 1.35276 -1.39744
thorax -1.84583 0.687441 0.288298
lowerneck -11.1565 -2.08527 -6.64939
upperneck 28.0336 -3.51229 6.99216
head 11.1227 -1.4974 3.25218
rclavicle -2.79541e-015 -1.98785e-015
rhumerus -26.8471 36.1391 -93.8214
rradius 88.6143
rwrist -12.0304
rhand -36.6394 11.4137
rfingers 7.12502
rthumb -9.72676 -18.3417
lclavicle -2.79541e-015 -1.98785e-015
lhumerus -12.348 -41.9997 79.096
lradius 101.817
lwrist -20.183
lhand 3.43335 14.692
lfingers 7.12502
lthumb 28.8746 42.4773
rfemur 5.17221 19.5933 16.931
rtibia 12.5861
rfoot -13.2397 -22.0766
rtoes -7.64568
lfemur 0 0 0
ltibia 0
lfoot 0 0
ltoes 0
283
root 1.98493 18.9044 -4.34955 -3.83581 -9.08443 1.89126
lowerback 5.18197 1.1696 -3.19758
upperback 1.03471 1.35156 -1.39494
thorax -1.8801 0.68722 0.267916
lowerneck -11.1319 -2.08078 -6.62955
upperneck 28.0309 -3.51749 7.01195
head 11.117 -1.49583 3.25537
rclavicle -1.77602e-014 1.15295e-014
rhumerus -26.8879 36.1785 -93.8785
rradius 88.5506
rwrist -12.0703
rhand -36.5884 11.0962
rfingers 7.12502
rthumb -9.67753 -18.6615
lclavicle -1.77602e-014 1.15295e-014
lhumerus -12.2716 -42.1393 79.027
lradius 101.674
lwrist -20.7436
lhand 2.94038 14.6731
lfingers 7.12502
lthumb 28.4036 42.5379
rfemur 5.15038 19.6204 16.9838
rtibia 12.5463
rfoot -13.2235 -22.0861
rtoes -7.31692
lfemur 0 0 0
ltibia 0
lfoot 0 0
ltoes 0
284
root 1.98465 18.904 -4.34834 -3.80646 -9.11208 1.88205
lowerback 5.14821 1.18314 -3.19351
upperback 1.04144 1.37153 -1.39557
thorax -1.85477 0.696814 0.26444
lowerneck -11.1378 -2.08071 -6.64102
upperneck 28.019 -3.51969 7.03331
head 11.1144 -1.49535 3.26472
rclavicle -5.40446e-015 5.96354e-015
rhumerus -26.8832 36.2194 -93.8921
rradius 88.4764
rwrist -12.3298
rhand -36.6215 11.1325
rfingers 7.12502
rthumb -9.7095 -18.6237
lclavicle -5.40446e-015 5.96354e-015
lhumerus -12.1613 -42.2469 78.9287
lradius 101.578
lwrist -21.2494
lhand 2.61329 14.4762
lfingers 7.12502
lthumb 28.091 42.3927
rfemur 5.12885 19.6384 16.9824
rtibia 12.5161
rfoot -13.1029 -22.0579
rtoes -7.03669
lfemur 0 0 0
ltibia 0
lfoot 0 0
ltoes 0
285
root 1.98427 18.9031 -4.34521 -3.80627 -9.14476 1.90518
lowerback 5.10299 1.18855 -3.22945
upperback 1.06892 1.37968 -1.39415
thorax -1.80232 0.700215 0.286796
lowerneck -11.1541 -2.07927 -6.65717
upperneck 28.0071 -3.50528 7.00971
head 11.1119 -1.49291 3.26029
rclavicle 2.18042e-014 -2.3059e-014
rhumerus -26.8588 36.2732 -93.8795
rradius 88.4391
rwrist -12.6662
rhand -36.6425 11.1741
rfingers 7.12502
rthumb -9.7297 -18.5812
lclavicle 2.18042e-014 -2.3059e-014
lhumerus -12.0406 -42.2925 78.8376
lradius 101.483
lwrist -21.6765
lhand 2.26634 14.2935
lfingers 7.12502
lthumb 27.7593 42.2639
rfemur 5.12888 19.6708 16.9575
rtibia 12.5116
rfoot -13.0696 -22.0404
rtoes -6.93576
lfemur 0 0 0
ltibia 0
lfoot 0 0
ltoes 0
